<?xml version="1.0" standalone="no"?>
<!DOCTYPE svg PUBLIC "-//W3C//DTD SVG 20010904//EN"
 "http://www.w3.org/TR/2001/REC-SVG-20010904/DTD/svg10.dtd">
<svg version="1.0" xmlns="http://www.w3.org/2000/svg"
 width="200.000000pt" height="80.000000pt" viewBox="0 0 200.000000 80.000000"
 preserveAspectRatio="xMidYMid meet">
<g transform="translate(0.000000,80.000000) scale(0.100000,-0.100000)"
fill="#000000" stroke="none">
<path d="M202 697 c-28 -30 -28 -68 1 -95 34 -32 82 -29 117 8 27 29 29 30 80
20 84 -16 140 -62 140 -115 0 -26 -58 -81 -98 -93 -22 -7 -74 -12 -116 -12
l-76 0 0 -82 c0 -75 -2 -84 -25 -103 -35 -29 -41 -65 -15 -98 42 -54 140 -23
140 44 0 26 -37 69 -58 69 -8 0 -12 20 -12 60 0 33 2 60 5 60 2 0 104 -56 227
-125 152 -86 225 -122 232 -115 6 6 9 50 7 106 l-3 97 31 28 c37 33 41 79 11
109 -25 25 -80 26 -111 2 -41 -34 -23 -106 32 -124 6 -2 9 -37 7 -89 l-3 -86
-183 102 -182 102 44 5 c62 7 134 45 157 82 57 94 -17 197 -153 213 -31 4 -60
15 -78 30 -37 31 -89 31 -118 0z m105 -23 c14 -22 14 -26 -1 -49 -12 -18 -25
-25 -50 -25 -40 0 -59 19 -54 57 6 53 74 64 105 17z m471 -227 c19 -15 15 -64
-8 -80 -45 -31 -114 17 -90 63 19 36 63 44 98 17z m-456 -252 c18 -39 -3 -75
-43 -75 -33 0 -69 24 -69 44 0 6 7 22 16 34 22 33 80 31 96 -3z"/>
<path d="M1140 385 c0 -24 -5 -35 -15 -35 -8 0 -15 -7 -15 -15 0 -8 7 -15 15
-15 12 0 15 -16 15 -84 0 -104 13 -125 83 -133 43 -5 47 -4 47 16 0 18 -6 21
-39 21 -47 0 -51 8 -51 106 l0 74 45 0 c33 0 45 4 45 15 0 11 -12 15 -45 15
-45 0 -45 0 -45 35 0 28 -4 35 -20 35 -16 0 -20 -7 -20 -35z"/>
<path d="M1293 363 c0 -9 4 -10 14 -2 7 6 13 12 13 14 0 1 -6 2 -13 2 -8 0
-14 -6 -14 -14z"/>
<path d="M923 346 c-81 -36 -97 -170 -26 -226 40 -31 107 -27 143 8 94 94 0
269 -117 218z m87 -48 c29 -31 28 -113 -2 -145 -26 -28 -61 -30 -88 -3 -15 15
-20 33 -20 75 0 42 5 60 20 75 26 26 64 25 90 -2z"/>
<path d="M975 260 c-3 -6 1 -7 9 -4 18 7 21 14 7 14 -6 0 -13 -4 -16 -10z"/>
<path d="M1380 347 c-68 -23 -101 -117 -65 -187 22 -43 53 -60 110 -60 70 0
95 9 95 32 0 15 -4 18 -17 13 -10 -4 -36 -9 -59 -12 -33 -4 -45 -1 -66 18 -15
13 -29 34 -33 47 l-7 23 96 -3 c94 -3 96 -3 96 20 0 84 -71 135 -150 109z m89
-53 c12 -15 21 -31 21 -35 0 -5 -34 -9 -75 -9 l-76 0 16 29 c25 49 81 56 114
15z"/>
<path d="M1603 335 c-29 -20 -31 -75 -4 -99 10 -9 41 -22 67 -29 52 -13 67
-35 43 -63 -13 -16 -67 -15 -116 1 -17 5 -21 3 -20 -12 3 -24 22 -31 90 -32
69 -1 97 20 97 73 0 41 -10 50 -82 71 -59 17 -73 36 -46 63 15 15 73 16 99 1
18 -9 20 -8 17 13 -3 21 -9 23 -63 26 -42 2 -67 -2 -82 -13z"/>
</g>
</svg>
