<?xml version="1.0" standalone="no"?>
<!DOCTYPE svg PUBLIC "-//W3C//DTD SVG 20010904//EN"
 "http://www.w3.org/TR/2001/REC-SVG-20010904/DTD/svg10.dtd">
<svg version="1.0" xmlns="http://www.w3.org/2000/svg"
 width="200.000000pt" height="200.000000pt" viewBox="0 0 200.000000 200.000000"
 preserveAspectRatio="xMidYMid meet">
<g transform="translate(0.000000,200.000000) scale(0.050000,-0.050000)"
fill="#000000" stroke="none">
<path d="M669 3571 c-192 -96 -269 -323 -166 -491 168 -275 553 -260 701 28
l39 77 168 -13 c697 -57 1047 -501 692 -878 -162 -173 -459 -252 -948 -253
-324 -1 -355 -4 -356 -36 -1 -19 0 -207 1 -417 l2 -383 -76 -39 c-329 -170
-216 -650 160 -682 437 -36 589 552 184 707 l-90 34 0 288 c0 158 4 287 9 287
9 0 2097 -1168 2165 -1212 167 -106 193 -24 177 566 l-13 504 78 50 c234 147
287 387 128 575 -282 336 -855 -23 -642 -402 40 -72 180 -181 231 -181 20 0
37 -400 37 -893 0 -1 -157 87 -350 196 -192 109 -613 344 -934 522 l-584 325
184 12 c834 52 1249 719 744 1197 -184 173 -465 279 -833 312 -149 13 -156 16
-218 93 -124 154 -313 195 -490 107z m318 -81 c198 -94 200 -385 5 -478 -202
-96 -432 31 -432 238 0 205 230 334 427 240z m2392 -1207 c247 -132 140 -503
-146 -503 -168 0 -293 115 -293 270 0 211 242 339 439 233z m-2297 -1208 c305
-204 -2 -647 -316 -456 -246 150 -139 501 154 501 65 0 115 -14 162 -45z"/>
</g>
</svg>
